<svg width="220" height="56" viewBox="0 0 220 56" fill="none" xmlns="http://www.w3.org/2000/svg">
<path d="M0.0243252 51H-1.47567V52.5H0.0243252V51ZM0.0243252 1.54545V0.0454531H-1.47567V1.54545H0.0243252ZM8.98313 1.54545H10.4831V0.0454531H8.98313V1.54545ZM8.98313 43.4901H7.48313V44.9901H8.98313V43.4901ZM30.7644 43.4901H32.2644V41.9901H30.7644V43.4901ZM30.7644 51V52.5H32.2644V51H30.7644ZM1.52433 51V1.54545H-1.47567V51H1.52433ZM0.0243252 3.04545H8.98313V0.0454531H0.0243252V3.04545ZM7.48313 1.54545V43.4901H10.4831V1.54545H7.48313ZM8.98313 44.9901H30.7644V41.9901H8.98313V44.9901ZM29.2644 43.4901V51H32.2644V43.4901H29.2644ZM30.7644 49.5H0.0243252V52.5H30.7644V49.5ZM47.4988 1.54545H48.9988V0.0454531H47.4988V1.54545ZM47.4988 51V52.5H48.9988V51H47.4988ZM38.54 51H37.04V52.5H38.54V51ZM38.54 1.54545V0.0454531H37.04V1.54545H38.54ZM45.9988 1.54545V51H48.9988V1.54545H45.9988ZM47.4988 49.5H38.54V52.5H47.4988V49.5ZM40.04 51V1.54545H37.04V51H40.04ZM38.54 3.04545H47.4988V0.0454531H38.54V3.04545ZM75.6248 34.3864V32.8864H72.5997L74.4308 35.2943L75.6248 34.3864ZM83.7385 34.3864L84.9262 33.4702L84.4758 32.8864H83.7385V34.3864ZM88.5439 40.6165L87.3561 41.5326L87.3766 41.5592L87.3983 41.5848L88.5439 40.6165ZM91.9728 44.6733L93.1564 43.7518L93.1379 43.728L93.1184 43.705L91.9728 44.6733ZM100.207 55.25V56.75H103.276L101.391 54.3285L100.207 55.25ZM91.514 55.25L90.3365 56.1792L90.7869 56.75H91.514V55.25ZM85.9118 48.1506L84.687 49.0166L84.7098 49.0488L84.7342 49.0798L85.9118 48.1506ZM83.5211 44.7699L84.7459 43.9038L84.7308 43.8826L84.7151 43.8619L83.5211 44.7699ZM98.3961 39.9645L97.0683 39.2668L97.0672 39.2689L98.3961 39.9645ZM90.2825 48.6577L89.5233 47.364L89.5206 47.3656L90.2825 48.6577ZM67.0282 48.6577L66.2619 49.9471L66.269 49.9514L67.0282 48.6577ZM58.9146 39.9403L57.5844 40.6336L57.588 40.6404L58.9146 39.9403ZM58.9146 12.6051L57.5867 11.9074L57.5856 11.9095L58.9146 12.6051ZM67.0282 3.88778L66.269 2.5941L66.2664 2.59566L67.0282 3.88778ZM90.2825 3.88778L89.5206 5.1799L89.5233 5.18146L90.2825 3.88778ZM98.3961 12.6051L97.0659 13.2984L97.0695 13.3051L98.3961 12.6051ZM90.6206 16.7827L89.2512 17.395L89.2559 17.4053L90.6206 16.7827ZM85.791 10.9148L84.9749 12.1734L84.9819 12.1778L85.791 10.9148ZM71.5439 10.9148L72.353 12.1778L72.36 12.1733L71.5439 10.9148ZM66.6902 16.7827L65.324 16.1632L65.3223 16.1671L66.6902 16.7827ZM66.6902 35.7869L65.3208 36.3993L65.3255 36.4096L66.6902 35.7869ZM71.5439 41.6548L70.7277 42.9134L70.7347 42.9179L71.5439 41.6548ZM85.791 41.6548L86.6002 42.9179L86.6071 42.9134L85.791 41.6548ZM90.6206 35.7869L89.2544 35.1675L89.2527 35.1714L90.6206 35.7869ZM75.6248 35.8864H83.7385V32.8864H75.6248V35.8864ZM82.5507 35.3025L87.3561 41.5326L89.7316 39.7004L84.9262 33.4702L82.5507 35.3025ZM87.3983 41.5848L90.8272 45.6416L93.1184 43.705L89.6895 39.6482L87.3983 41.5848ZM90.7892 45.5948L99.0236 56.1715L101.391 54.3285L93.1564 43.7518L90.7892 45.5948ZM100.207 53.75H91.514V56.75H100.207V53.75ZM92.6916 54.3208L87.0893 47.2214L84.7342 49.0798L90.3365 56.1792L92.6916 54.3208ZM87.1365 47.2845L84.7459 43.9038L82.2964 45.6359L84.687 49.0166L87.1365 47.2845ZM84.7151 43.8619L76.8188 33.4784L74.4308 35.2943L82.3272 45.6779L84.7151 43.8619ZM99.8904 26.2727C99.8904 31.416 98.9273 35.7286 97.0683 39.2668L99.724 40.6622C101.857 36.6019 102.89 31.7867 102.89 26.2727H99.8904ZM97.0672 39.2689C95.2072 42.8225 92.6921 45.5044 89.5233 47.364L91.0417 49.9514C94.7308 47.7864 97.6248 44.6728 99.7251 40.6601L97.0672 39.2689ZM89.5206 47.3656C86.3598 49.2293 82.7557 50.1761 78.6674 50.1761V53.1761C83.2402 53.1761 87.3795 52.1107 91.0444 49.9498L89.5206 47.3656ZM78.6674 50.1761C74.5793 50.1761 70.9659 49.2293 67.7874 47.364L66.269 49.9514C69.9485 52.1107 74.0946 53.1761 78.6674 53.1761V50.1761ZM67.7946 47.3682C64.6376 45.4919 62.1189 42.7988 60.2412 39.2403L57.588 40.6404C59.7027 44.6482 62.5931 47.7666 66.2619 49.9471L67.7946 47.3682ZM60.2448 39.2471C58.3999 35.7072 57.4444 31.4008 57.4444 26.2727H54.4444C54.4444 31.7697 55.4691 36.575 57.5844 40.6336L60.2448 39.2471ZM57.4444 26.2727C57.4444 21.1275 58.4003 16.8225 60.2436 13.3007L57.5856 11.9095C55.4687 15.9541 54.4444 20.7608 54.4444 26.2727H57.4444ZM60.2425 13.3028C62.1202 9.72914 64.6374 7.03878 67.7901 5.1799L66.2664 2.59566C62.5933 4.7614 59.7015 7.88261 57.5867 11.9074L60.2425 13.3028ZM67.7874 5.18146C70.9659 3.31616 74.5793 2.36932 78.6674 2.36932V-0.630684C74.0946 -0.630684 69.9485 0.434783 66.269 2.5941L67.7874 5.18146ZM78.6674 2.36932C82.7557 2.36932 86.3598 3.31617 89.5206 5.1799L91.0444 2.59566C87.3795 0.434769 83.2402 -0.630684 78.6674 -0.630684V2.36932ZM89.5233 5.18146C92.6904 7.04013 95.2055 9.72875 97.066 13.2984L99.7263 11.9118C97.6265 7.883 94.7325 4.76006 91.0417 2.5941L89.5233 5.18146ZM97.0695 13.3051C98.9272 16.8258 99.8904 21.1292 99.8904 26.2727H102.89C102.89 20.759 101.857 15.9507 99.7228 11.9051L97.0695 13.3051ZM93.8833 26.2727C93.8833 22.3734 93.2736 18.9838 91.9852 16.16L89.2559 17.4053C90.3179 19.733 90.8833 22.6701 90.8833 26.2727H93.8833ZM91.9899 16.1703C90.731 13.3554 88.9444 11.1535 86.6002 9.65172L84.9819 12.1778C86.7589 13.3162 88.1919 15.0263 89.2513 17.395L91.9899 16.1703ZM86.6071 9.65621C84.2806 8.14762 81.617 7.41051 78.6674 7.41051V10.4105C81.0948 10.4105 83.1802 11.0096 84.9749 12.1733L86.6071 9.65621ZM78.6674 7.41051C75.7179 7.41051 73.0543 8.14762 70.7278 9.65621L72.36 12.1733C74.1547 11.0096 76.2401 10.4105 78.6674 10.4105V7.41051ZM70.7347 9.65172C68.3925 11.1522 66.5989 13.3515 65.324 16.1632L68.0563 17.4021C69.1318 15.0301 70.574 13.3175 72.353 12.1778L70.7347 9.65172ZM65.3223 16.1671C64.0525 18.9888 63.4515 22.3757 63.4515 26.2727H66.4515C66.4515 22.6678 67.0096 19.728 68.058 17.3982L65.3223 16.1671ZM63.4515 26.2727C63.4515 30.1702 64.0527 33.5635 65.3209 36.3993L68.0595 35.1746C67.0095 32.8267 66.4515 29.8772 66.4515 26.2727H63.4515ZM65.3255 36.4096C66.6007 39.2046 68.3926 41.3992 70.7278 42.9134L72.36 40.3963C70.5739 39.2381 69.13 37.5208 68.0548 35.1643L65.3255 36.4096ZM70.7347 42.9179C73.0604 44.4078 75.7215 45.1349 78.6674 45.1349V42.1349C76.2365 42.1349 74.1485 41.542 72.353 40.3918L70.7347 42.9179ZM78.6674 45.1349C81.6134 45.1349 84.2745 44.4078 86.6002 42.9179L84.9819 40.3918C83.1864 41.542 81.0984 42.1349 78.6674 42.1349V45.1349ZM86.6071 42.9134C88.9443 41.3979 90.7292 39.2007 91.9884 36.4025L89.2527 35.1714C88.1937 37.5247 86.7589 39.2394 84.9749 40.3963L86.6071 42.9134ZM91.9867 36.4064C93.2734 33.5685 93.8833 30.1725 93.8833 26.2727H90.8833C90.8833 29.8748 90.3181 32.8217 89.2544 35.1675L91.9867 36.4064ZM141.101 1.54545V0.0454531H139.601V1.54545H141.101ZM150.06 1.54545H151.56V0.0454531H150.06V1.54545ZM147.549 43.2003L146.276 42.4073L146.272 42.4129L147.549 43.2003ZM140.546 49.5028L141.214 50.8459L141.22 50.843L140.546 49.5028ZM119.417 49.5028L118.743 50.8431L118.749 50.8459L119.417 49.5028ZM112.414 43.2003L113.691 42.4129L113.691 42.4129L112.414 43.2003ZM109.927 1.54545V0.0454531H108.427V1.54545H109.927ZM118.885 1.54545H120.385V0.0454531H118.885V1.54545ZM120.238 38.6122L118.929 39.3451L118.935 39.355L120.238 38.6122ZM124.101 42.4034L123.375 43.7159L123.385 43.7212L124.101 42.4034ZM135.885 42.4034L136.602 43.7212L136.606 43.7188L135.885 42.4034ZM139.749 38.6122L141.058 39.3451L141.058 39.3451L139.749 38.6122ZM141.101 3.04545H150.06V0.0454531H141.101V3.04545ZM148.56 1.54545V33.8551H151.56V1.54545H148.56ZM148.56 33.8551C148.56 37.1506 147.785 39.9842 146.276 42.4073L148.822 43.9932C150.662 41.0394 151.56 37.643 151.56 33.8551H148.56ZM146.272 42.4129C144.77 44.8488 142.652 46.7655 139.872 48.1626L141.22 50.843C144.461 49.2136 147.012 46.9286 148.826 43.9877L146.272 42.4129ZM139.878 48.1598C137.112 49.5353 133.831 50.2486 129.993 50.2486V53.2486C134.205 53.2486 137.959 52.4647 141.214 50.8459L139.878 48.1598ZM129.993 50.2486C126.138 50.2486 122.85 49.5349 120.085 48.1598L118.749 50.8459C122.005 52.4651 125.767 53.2486 129.993 53.2486V50.2486ZM120.09 48.1626C117.311 46.7655 115.193 44.8488 113.691 42.4129L111.137 43.9877C112.951 46.9286 115.502 49.2136 118.743 50.843L120.09 48.1626ZM113.691 42.4129C112.196 39.989 111.427 37.1533 111.427 33.8551H108.427C108.427 37.6402 109.316 41.0347 111.137 43.9877L113.691 42.4129ZM111.427 33.8551V1.54545H108.427V33.8551H111.427ZM109.927 3.04545H118.885V0.0454531H109.927V3.04545ZM117.385 1.54545V33.1065H120.385V1.54545H117.385ZM117.385 33.1065C117.385 35.3932 117.888 37.4861 118.929 39.3451L121.547 37.8793C120.785 36.5186 120.385 34.9411 120.385 33.1065H117.385ZM118.935 39.355C119.992 41.2098 121.482 42.6681 123.375 43.7158L124.828 41.091C123.405 40.3035 122.319 39.2344 121.541 37.8694L118.935 39.355ZM123.385 43.7212C125.303 44.7643 127.524 45.2557 129.993 45.2557V42.2557C127.923 42.2557 126.216 41.8456 124.818 41.0856L123.385 43.7212ZM129.993 45.2557C132.463 45.2557 134.683 44.7643 136.602 43.7212L135.169 41.0856C133.771 41.8456 132.064 42.2557 129.993 42.2557V45.2557ZM136.606 43.7188C138.518 42.6709 140.014 41.2092 141.058 39.3451L138.44 37.8793C137.681 39.2349 136.601 40.3007 135.165 41.088L136.606 43.7188ZM141.058 39.3451C142.099 37.4861 142.601 35.3932 142.601 33.1065H139.601C139.601 34.9411 139.202 36.5186 138.44 37.8793L141.058 39.3451ZM142.601 33.1065V1.54545H139.601V33.1065H142.601ZM168.757 1.54545H170.257V0.0454531H168.757V1.54545ZM168.757 51V52.5H170.257V51H168.757ZM159.798 51H158.298V52.5H159.798V51ZM159.798 1.54545V0.0454531H158.298V1.54545H159.798ZM167.257 1.54545V51H170.257V1.54545H167.257ZM168.757 49.5H159.798V52.5H168.757V49.5ZM161.298 51V1.54545H158.298V51H161.298ZM159.798 3.04545H168.757V0.0454531H159.798V3.04545ZM178.458 51H176.958V52.5H178.458V51ZM178.458 1.54545V0.0454531H176.958V1.54545H178.458ZM208.208 4.51562L207.473 5.82349L207.48 5.82742L208.208 4.51562ZM216.37 12.9915L215.036 13.6786L215.036 13.6786L216.37 12.9915ZM216.346 39.5057L215.013 38.8164L215.011 38.821L216.346 39.5057ZM208.111 48.0298L207.387 46.7164L207.384 46.7178L208.111 48.0298ZM187.417 43.2486H185.917V44.7486H187.417V43.2486ZM203.403 41.3651L204.121 42.6819L204.128 42.678L203.403 41.3651ZM208.594 35.6903L209.956 36.3189L209.958 36.3156L208.594 35.6903ZM208.594 16.8068L207.232 17.4354L207.234 17.4387L208.594 16.8068ZM203.451 11.1804L202.721 12.4908L202.732 12.4969L203.451 11.1804ZM187.417 9.29688V7.79688H185.917V9.29688H187.417ZM195.216 49.5H178.458V52.5H195.216V49.5ZM179.958 51V1.54545H176.958V51H179.958ZM178.458 3.04545H195.555V0.0454531H178.458V3.04545ZM195.555 3.04545C200.262 3.04545 204.216 3.99372 207.473 5.82347L208.942 3.20778C205.149 1.0773 200.667 0.0454531 195.555 0.0454531V3.04545ZM207.48 5.82742C210.756 7.64402 213.269 10.2488 215.036 13.6786L217.703 12.3044C215.671 8.36103 212.743 5.31525 208.935 3.20383L207.48 5.82742ZM215.036 13.6786C216.804 17.1079 217.719 21.2721 217.719 26.2244H220.719C220.719 20.9059 219.735 16.2481 217.703 12.3044L215.036 13.6786ZM217.719 26.2244C217.719 31.1917 216.796 35.3712 215.013 38.8164L217.678 40.195C219.727 36.2349 220.719 31.5602 220.719 26.2244H217.719ZM215.011 38.821C213.246 42.2622 210.711 44.8827 207.387 46.7164L208.836 49.3433C212.691 47.2167 215.647 44.1544 217.68 40.1904L215.011 38.821ZM207.384 46.7178C204.079 48.5494 200.043 49.5 195.216 49.5V52.5C200.436 52.5 204.996 51.4705 208.838 49.3419L207.384 46.7178ZM187.417 44.7486H194.782V41.7486H187.417V44.7486ZM194.782 44.7486C198.402 44.7486 201.54 44.0896 204.121 42.6819L202.684 40.0482C200.661 41.1519 198.052 41.7486 194.782 41.7486V44.7486ZM204.128 42.678C206.725 41.2434 208.671 39.1044 209.956 36.3189L207.232 35.0618C206.2 37.299 204.685 38.9431 202.677 40.0521L204.128 42.678ZM209.958 36.3156C211.233 33.5347 211.833 30.1499 211.833 26.2244H208.833C208.833 29.8652 208.274 32.7911 207.231 35.0651L209.958 36.3156ZM211.833 26.2244C211.833 22.3 211.233 18.9278 209.955 16.1749L207.234 17.4387C208.273 19.6764 208.833 22.5825 208.833 26.2244H211.833ZM209.956 16.1782C208.672 13.3961 206.742 11.2688 204.17 9.86391L202.732 12.4969C204.699 13.5711 206.198 15.1948 207.232 17.4354L209.956 16.1782ZM204.181 9.87005C201.647 8.45834 198.577 7.79688 195.047 7.79688V10.7969C198.214 10.7969 200.747 11.3911 202.721 12.4908L204.181 9.87005ZM195.047 7.79688H187.417V10.7969H195.047V7.79688ZM185.917 9.29688V43.2486H188.917V9.29688H185.917Z" fill="black"/>
</svg>
